<?xml version="1.0" encoding="utf-8"?>
<!-- Generator: Adobe Illustrator 22.1.0, SVG Export Plug-In . SVG Version: 6.00 Build 0)  -->
<svg version="1.1" xmlns="http://www.w3.org/2000/svg" xmlns:xlink="http://www.w3.org/1999/xlink" x="0px" y="0px"
	 viewBox="0 0 120.6 124.7" style="enable-background:new 0 0 120.6 124.7;" xml:space="preserve">
<style type="text/css">
	.st0{fill:#0D0D0F;}
</style>
<g id="background">
</g>
<g id="Layer_1">
	<g>
		<g>
			<path d="M41.6,103.1c0,2.1-1.8,3.9-3.9,3.9h-4.1c-2.1,0-3.9-1.8-3.9-3.9v-6.8c0-2.1,1.8-3.9,3.9-3.9h6.3L39,95.3h-5.4
				c-0.6,0-1.1,0.5-1.1,1.1v6.7c0,0.6,0.5,1.1,1.1,1.1h4c0.6,0,1.1-0.5,1.1-1.1v-1.9h-2.9L35,98.3h6.6V103.1z"/>
			<path d="M53.1,95.3h-4.2V107H46V96.7l1.4-1.4h-5.6v-2.9h11.3V95.3z"/>
			<path d="M65.7,96.3v6.8c0,2.1-1.8,3.9-3.9,3.9h-3.7c-2.1,0-3.9-1.8-3.9-3.9v-6.8c0-2.1,1.8-3.9,3.9-3.9h3.7
				C63.9,92.4,65.7,94.2,65.7,96.3z M62.8,96.4c0-0.6-0.5-1.1-1.1-1.1h-3.6c-0.6,0-1.1,0.5-1.1,1.1v6.7c0,0.6,0.5,1.1,1.1,1.1h3.6
				c0.6,0,1.1-0.5,1.1-1.1V96.4z"/>
			<path d="M78.8,96.3v6.8c0,2.1-1.8,3.9-3.9,3.9h-6l0.8-2.9h5.1c0.6,0,1.1-0.5,1.1-1.1v-1.9h-5.1c-2.1,0-3.9-1.8-3.9-3.9v-1
				c0-2.1,1.8-3.9,3.9-3.9h4.1C77.1,92.4,78.8,94.2,78.8,96.3z M75.9,96.4c0-0.6-0.5-1.1-1.1-1.1h-4c-0.6,0-1.1,0.5-1.1,1.1v0.8
				c0,0.6,0.5,1.1,1.1,1.1h3.7l1.4,1.5V96.4z"/>
			<path d="M90.9,96.3v6.8c0,2.1-1.8,3.9-3.9,3.9h-3c-2.1,0-3.9-1.8-3.9-3.9v-6.8c0-2.1,1.8-3.9,3.9-3.9h3
				C89.1,92.4,90.9,94.2,90.9,96.3z M88,96.4c0-0.6-0.5-1.1-1.1-1.1H84c-0.6,0-1.1,0.5-1.1,1.1v6.7c0,0.6,0.5,1.1,1.1,1.1h2.9
				c0.6,0,1.1-0.5,1.1-1.1V96.4z"/>
		</g>
		<path class="st0" d="M94.9,45.8c-0.6-0.8-0.7-0.7-1.6-0.7c-1.4-4.8-2-4.9-3.5-4.3c-0.5-0.4-1-0.7-1.4-0.8
			c-0.1-0.7-0.3-1.5-0.6-2.4c-1-3-1.4-3.9-1.4-3.9s1.1-0.5-1.4-3.5c-4-4.7-8.1-8.3-14.4-10.1c-0.4-0.6-1-1.3-1.3-1.5
			c-0.7-0.3-4.9-0.9-8.9-0.9c-4,0-8.3,0.7-8.9,0.9c-0.4,0.1-0.9,0.9-1.3,1.5c-6.3,1.8-10.4,5.4-14.4,10.1c-2.5,3-1.4,3.5-1.4,3.5
			s-0.5,0.9-1.4,3.9c-0.3,0.9-0.5,1.7-0.6,2.4c-0.4,0.1-0.9,0.4-1.4,0.8c-1.5-0.5-2.1-0.5-3.5,4.3c-0.9,0-1-0.1-1.6,0.7
			c-1.3,1.7-0.9,7.8-0.2,10.3c0.1,0.4,0.3,1,1.1,1.2c0.4,0.1,1.3,0,1.3,0s1.2,3.6,1.9,4c0.5,0.3,1.4,0.1,1.4,0.1s0.3,1,2.4,0.8
			c0.8-0.1,1.4-0.2,1.7-0.4c0.3,2.6,0.8,5.7,2,9.4c1.2,5.3,6,12,11.7,14.5c4.6,2,7.7,2.3,11.4,2.5c3.7-0.2,6.8-0.4,11.4-2.5
			c5.7-2.5,10.4-9.2,11.7-14.5c1.2-3.7,1.7-6.7,2-9.4c0.4,0.2,0.9,0.3,1.7,0.4c2.1,0.2,2.4-0.8,2.4-0.8s0.9,0.2,1.4-0.1
			c0.7-0.4,1.9-4,1.9-4s0.9,0.1,1.3,0c0.8-0.1,1-0.7,1.1-1.2C95.8,53.6,96.2,47.5,94.9,45.8z M44.9,70.8c-1-0.6-2.1-1.3-2.5-1.6
			c-0.1-0.1-0.2-0.3-0.2-0.4l0.2-1l4.8,2.2c0.2,0.1,0.3,0.2,0.3,0.4v1.9c0,0,0.1,8.1,3.3,10.7C47.1,81.2,45.5,74.9,44.9,70.8z
			 M57.8,80.6c0,0.3-0.3,0.5-0.6,0.5l-4.5-0.6c-0.2,0-0.4-0.2-0.4-0.4l-0.2-1c-0.1-0.3,0.2-0.6,0.6-0.6l4.6,0.8
			c0.2,0,0.4,0.2,0.4,0.5V80.6z M57.8,72.1l-5.1-0.5c-0.2,0-0.4-0.2-0.5-0.4L52,70l5.8,0.6V72.1z M68.3,80c0,0.2-0.2,0.4-0.4,0.4
			L63.4,81c-0.3,0-0.6-0.2-0.6-0.5v-0.8c0-0.2,0.2-0.4,0.4-0.5l4.6-0.8c0.3-0.1,0.6,0.2,0.6,0.6L68.3,80z M68.4,71.2
			c0,0.2-0.2,0.4-0.5,0.4l-5.1,0.5v-1.5l5.8-0.6L68.4,71.2z M78.3,69.2c-0.5,0.3-1.5,1-2.5,1.6c-0.6,4.1-2.3,10.4-5.8,12.1
			c3.2-2.6,3.3-10.7,3.3-10.7v-1.9c0-0.2,0.1-0.3,0.3-0.4l4.8-2.2l0.2,1C78.5,68.9,78.5,69.1,78.3,69.2z M85.1,59.9
			c-0.1,0.2-0.3,0.5-0.4,0.7c-3.3,4.6-6.2,6.5-13,8.4l-0.3,0c-0.9,0-1.4-0.2-1.8-0.3c-0.4-0.2-0.8-0.3-2.1-0.2
			c-1.9,0.2-5.5,0.4-7.2,0.4c-1.7-0.1-5.2-0.3-7.2-0.4c-1.2-0.1-1.6,0-2.1,0.2c-0.4,0.1-0.9,0.3-1.8,0.3L49,69
			c-6.8-1.9-9.7-3.8-13-8.4c-0.1-0.2-0.3-0.5-0.4-0.7c-0.7-5.7-0.8-7.2-0.3-9.4c0.3,3.4,1,7.1,2.3,9c2.8,3.9,5.1,5.7,11.8,7.6
			c0.4,0,0.7-0.1,1-0.2c0.7-0.2,1.4-0.4,3-0.3c1.8,0.2,5.3,0.4,7,0.4c1.7-0.1,5.1-0.3,7-0.4c1.6-0.1,2.2,0,3,0.3
			c0.3,0.1,0.5,0.2,1,0.2c6.7-1.9,9-3.7,11.8-7.6c1.4-1.9,2-5.6,2.3-9C85.9,52.7,85.8,54.2,85.1,59.9z M85.6,41.2
			c-0.3,0.3-0.8,1.7-1,2.7c-0.5,3.4-1.7,4.2-2,4.4l-0.3,0.2L82,48.4c-0.1,0-8.8-1.4-21.7-1.4c-12.8,0-21.6,1.4-21.7,1.4l-0.3,0.1
			L38,48.3c-0.4-0.2-1.6-1-2-4.4c-0.1-1.1-0.7-2.4-1-2.7c-0.2-0.2-0.5-0.5-0.8-0.7c0.5-2.6,1.7-6.3,1.7-6.3s0.3,0.1,0.6-0.2
			c1.1-1.6,2.7-4.3,7.6-7.2c1.8-1.1,3.8-1.8,5.7-2.4c0.5,0.4,1,0.5,1.6,0.4c-5.2,2-11.2,6.2-15.5,14.9c0.7,0.4,1.6,1.4,2,3.9
			c0.2,1.7,0.6,2.4,0.9,2.8c2.1-0.3,9.5-1.2,21.5-1.3c11.9,0.1,19.4,1,21.5,1.3c0.2-0.3,0.6-1.1,0.9-2.8c0.3-2.5,1.3-3.5,2-3.9
			C80.4,31,74.3,26.8,69.1,24.8c0.6,0.1,1.1,0,1.6-0.4c1.9,0.5,3.9,1.3,5.7,2.4c4.9,2.9,6.5,5.6,7.6,7.2c0.4,0.3,0.6,0.2,0.6,0.2
			s1.3,3.7,1.7,6.3C86.1,40.7,85.9,41,85.6,41.2z"/>
	</g>
</g>
</svg>
