<?xml version="1.0" encoding="UTF-8" standalone="no"?>
<svg
   xmlns:dc="http://purl.org/dc/elements/1.1/"
   xmlns:cc="http://creativecommons.org/ns#"
   xmlns:rdf="http://www.w3.org/1999/02/22-rdf-syntax-ns#"
   xmlns:svg="http://www.w3.org/2000/svg"
   xmlns="http://www.w3.org/2000/svg"
   id="svg20"
   xml:space="preserve"
   style="enable-background:new 0 0 275.6 108.6;"
   viewBox="0 0 275.6 108.6"
   y="0px"
   x="0px"
   version="1.1"><metadata
   id="metadata26"><rdf:RDF><cc:Work
       rdf:about=""><dc:format>image/svg+xml</dc:format><dc:type
         rdf:resource="http://purl.org/dc/dcmitype/StillImage" /><dc:title></dc:title></cc:Work></rdf:RDF></metadata><defs
   id="defs24" />
<style
   id="style2"
   type="text/css">
	.st0{fill:#0D0D0F;}
</style>
<g
   id="background">
</g>
<g
   id="Layer_1">
	<g
   id="g15">
		<path
   id="path5"
   d="M126.3,63.6c0,5.3-4.3,9.6-9.6,9.6h-10.1c-5.3,0-9.6-4.3-9.6-9.6V46.8c0-5.3,4.3-9.6,9.6-9.6H122l-2.1,7.1h-13.2    c-1.4,0-2.7,1.2-2.7,2.7v16.5c0,1.4,1.2,2.7,2.7,2.7h9.9c1.5,0,2.7-1.2,2.7-2.7v-4.7h-7l-2.1-7.1h16.3V63.6z" />
		<path
   id="path7"
   d="M154.5,44.3h-10.3v28.9h-7V47.8l3.5-3.5h-13.9v-7.1h27.7V44.3z" />
		<path
   id="path9"
   d="M185.5,46.8v16.8c0,5.3-4.3,9.6-9.6,9.6h-9.1c-5.3,0-9.6-4.3-9.6-9.6V46.8c0-5.3,4.3-9.6,9.6-9.6h9.1    C181.2,37.2,185.5,41.5,185.5,46.8z M178.4,47c0-1.5-1.2-2.7-2.7-2.7h-8.8c-1.4,0-2.7,1.2-2.7,2.7v16.5c0,1.4,1.2,2.7,2.7,2.7h8.8    c1.5,0,2.7-1.2,2.7-2.7V47z" />
		<path
   id="path11"
   d="M217.9,46.8v16.8c0,5.3-4.3,9.6-9.6,9.6h-14.8l2.1-7h12.5c1.5,0,2.7-1.2,2.7-2.7v-4.7h-12.6c-5.3,0-9.6-4.3-9.6-9.6v-2.3    c0-5.3,4.3-9.6,9.6-9.6h10.1C213.6,37.2,217.9,41.5,217.9,46.8z M210.8,47c0-1.5-1.2-2.7-2.7-2.7h-9.9c-1.4,0-2.7,1.2-2.7,2.7v2    c0,1.5,1.2,2.7,2.7,2.7h9l3.5,3.6V47z" />
		<path
   id="path13"
   d="M247.6,46.8v16.8c0,5.3-4.3,9.6-9.6,9.6h-7.5c-5.3,0-9.6-4.3-9.6-9.6V46.8c0-5.3,4.3-9.6,9.6-9.6h7.5    C243.3,37.2,247.6,41.5,247.6,46.8z M240.5,47c0-1.5-1.2-2.7-2.7-2.7h-7.2c-1.4,0-2.7,1.2-2.7,2.7v16.5c0,1.4,1.2,2.7,2.7,2.7h7.2    c1.5,0,2.7-1.2,2.7-2.7V47z" />
	</g>
	<path
   id="path17"
   d="M84.4,48.6C83.9,48,83.8,48,83.1,48c-1.1-3.9-1.6-3.9-2.8-3.5c-0.4-0.3-0.8-0.5-1.1-0.6   c-0.1-0.6-0.3-1.2-0.5-1.9c-0.8-2.5-1.2-3.2-1.2-3.2s0.9-0.4-1.2-2.8c-3.2-3.8-6.5-6.7-11.6-8.2c-0.3-0.5-0.8-1.1-1.1-1.2   c-0.5-0.2-4-0.8-7.2-0.8c-3.2,0-6.7,0.6-7.2,0.8c-0.3,0.1-0.7,0.7-1.1,1.2c-5.1,1.5-8.4,4.4-11.6,8.2c-2,2.4-1.2,2.8-1.2,2.8   S35,39.5,34.2,42c-0.2,0.7-0.4,1.3-0.5,1.9c-0.3,0.1-0.7,0.3-1.1,0.6c-1.2-0.4-1.7-0.4-2.8,3.5c-0.7,0-0.8-0.1-1.3,0.6   c-1,1.4-0.7,6.3-0.2,8.3c0.1,0.3,0.2,0.8,0.9,0.9c0.3,0.1,1,0,1,0s0.9,2.9,1.5,3.3c0.4,0.2,1.1,0.1,1.1,0.1s0.2,0.8,1.9,0.6   c0.6-0.1,1.1-0.2,1.4-0.3c0.3,2.1,0.7,4.6,1.6,7.6c1,4.3,4.8,9.7,9.4,11.7c3.7,1.6,6.2,1.8,9.2,2c3-0.2,5.5-0.3,9.2-2   c4.6-2,8.4-7.4,9.4-11.7c1-3,1.4-5.4,1.6-7.6c0.3,0.1,0.7,0.2,1.4,0.3c1.7,0.2,1.9-0.6,1.9-0.6s0.7,0.2,1.1-0.1   c0.6-0.4,1.5-3.3,1.5-3.3s0.7,0.1,1,0c0.6-0.1,0.8-0.6,0.9-0.9C85.1,54.9,85.4,50,84.4,48.6z M44,68.7c-0.8-0.5-1.7-1-2.1-1.3   c-0.1-0.1-0.2-0.2-0.2-0.4l0.2-0.8l3.9,1.8c0.1,0.1,0.2,0.2,0.2,0.3v1.5c0,0,0,6.6,2.7,8.6C45.8,77.1,44.5,72.1,44,68.7z    M54.4,76.6c0,0.2-0.2,0.4-0.5,0.4l-3.6-0.5c-0.2,0-0.3-0.2-0.4-0.3l-0.1-0.8c0-0.3,0.2-0.5,0.5-0.5l3.7,0.6c0.2,0,0.3,0.2,0.3,0.4   V76.6z M54.4,69.8l-4.1-0.4c-0.2,0-0.3-0.2-0.4-0.3l-0.1-1l4.6,0.5V69.8z M62.9,76.2c0,0.2-0.2,0.3-0.4,0.3L59,77   c-0.2,0-0.5-0.2-0.5-0.4V76c0-0.2,0.1-0.4,0.3-0.4l3.7-0.6c0.3,0,0.5,0.2,0.5,0.5L62.9,76.2z M63,69.1c0,0.2-0.2,0.3-0.4,0.3   l-4.1,0.4v-1.2l4.6-0.5L63,69.1z M71,67.5c-0.4,0.2-1.2,0.8-2.1,1.3c-0.5,3.3-1.8,8.4-4.7,9.8c2.6-2.1,2.7-8.6,2.7-8.6v-1.5   c0-0.1,0.1-0.3,0.2-0.3l3.9-1.8l0.2,0.8C71.2,67.2,71.1,67.4,71,67.5z M76.4,60c-0.1,0.2-0.2,0.4-0.3,0.6c-2.7,3.7-5,5.2-10.5,6.8   l-0.2,0c-0.7,0-1.1-0.1-1.5-0.3c-0.4-0.1-0.7-0.2-1.7-0.1c-1.6,0.1-4.4,0.3-5.8,0.4c-1.3-0.1-4.2-0.2-5.8-0.4c-1-0.1-1.3,0-1.7,0.1   c-0.3,0.1-0.7,0.3-1.5,0.3l-0.2,0c-5.5-1.6-7.8-3.1-10.5-6.8c-0.1-0.2-0.2-0.4-0.3-0.6c-0.5-4.6-0.6-5.8-0.2-7.6   c0.2,2.7,0.8,5.7,1.9,7.2c2.3,3.2,4.1,4.6,9.5,6.1c0.4,0,0.5-0.1,0.8-0.2c0.6-0.2,1.1-0.3,2.4-0.2c1.5,0.1,4.3,0.3,5.6,0.3   c1.4-0.1,4.1-0.2,5.6-0.3c1.3-0.1,1.8,0,2.4,0.2c0.2,0.1,0.4,0.1,0.8,0.2c5.4-1.6,7.2-3,9.5-6.1c1.1-1.5,1.6-4.5,1.9-7.2   C77.1,54.1,77,55.4,76.4,60z M76.9,44.9c-0.3,0.3-0.7,1.4-0.8,2.2c-0.4,2.7-1.4,3.4-1.6,3.6l-0.2,0.1l-0.3,0   c-0.1,0-7.1-1.1-17.5-1.1c-10.4,0-17.4,1.1-17.5,1.1l-0.3,0l-0.2-0.1c-0.3-0.1-1.3-0.8-1.6-3.6c-0.1-0.9-0.5-2-0.8-2.2   c-0.2-0.2-0.4-0.4-0.6-0.6c0.4-2.1,1.4-5.1,1.4-5.1s0.2,0.1,0.5-0.2c0.9-1.3,2.2-3.5,6.2-5.8c1.5-0.8,3-1.5,4.6-1.9   c0.4,0.3,0.8,0.4,1.3,0.3c-4.2,1.6-9.1,5-12.5,12c0.5,0.3,1.3,1.2,1.6,3.2c0.2,1.3,0.5,2,0.7,2.2c1.7-0.2,7.7-1,17.3-1.1   c9.6,0.1,15.7,0.8,17.3,1.1c0.2-0.3,0.5-0.9,0.7-2.2c0.3-2,1-2.8,1.6-3.2c-3.4-7-8.3-10.4-12.5-12c0.5,0.1,0.9,0,1.3-0.3   c1.5,0.4,3.1,1,4.6,1.9c4,2.3,5.3,4.5,6.2,5.8c0.3,0.2,0.5,0.2,0.5,0.2s1,3,1.4,5.1C77.3,44.5,77.1,44.7,76.9,44.9z"
   class="st0" />
</g>
</svg>