<?xml version="1.0" encoding="UTF-8" standalone="no"?>
<svg
   xmlns:dc="http://purl.org/dc/elements/1.1/"
   xmlns:cc="http://creativecommons.org/ns#"
   xmlns:rdf="http://www.w3.org/1999/02/22-rdf-syntax-ns#"
   xmlns:svg="http://www.w3.org/2000/svg"
   xmlns="http://www.w3.org/2000/svg"
   height="57"
   width="219.76312"
   id="svg20"
   xml:space="preserve"
   viewBox="0 0 219.76312 57.000001"
   y="0px"
   x="0px"
   version="1.1"><metadata
   id="metadata26"><rdf:RDF><cc:Work
       rdf:about=""><dc:format>image/svg+xml</dc:format><dc:type
         rdf:resource="http://purl.org/dc/dcmitype/StillImage" /><dc:title></dc:title></cc:Work></rdf:RDF></metadata><defs
   id="defs24">
	
	

		
		
		
		
		
	</defs>
<style
   id="style2"
   type="text/css">
	.st0{fill:#0D0D0F;}
</style>
<g
   transform="translate(-27.83688,-25.8)"
   id="background">
</g>
<g
   id="g851"><path
     d="m 98.46312,37.8 c 0,5.3 -4.3,9.6 -9.6,9.6 h -10.1 c -5.3,0 -9.6,-4.3 -9.6,-9.6 V 21 c 0,-5.3 4.3,-9.6 9.6,-9.6 h 15.4 l -2.1,7.1 h -13.2 c -1.4,0 -2.7,1.2 -2.7,2.7 v 16.5 c 0,1.4 1.2,2.7 2.7,2.7 h 9.9 c 1.5,0 2.7,-1.2 2.7,-2.7 V 33 h -7 l -2.1,-7.1 h 16.3 v 11.9 z"
     id="path5" /><path
     d="m 126.66312,18.5 h -10.3 v 28.9 h -7 V 22 l 3.5,-3.5 h -13.9 v -7.1 h 27.7 z"
     id="path7" /><path
     d="m 157.66312,21 v 16.8 c 0,5.3 -4.3,9.6 -9.6,9.6 h -9.1 c -5.3,0 -9.6,-4.3 -9.6,-9.6 V 21 c 0,-5.3 4.3,-9.6 9.6,-9.6 h 9.1 c 5.3,0 9.6,4.3 9.6,9.6 z m -7.1,0.2 c 0,-1.5 -1.2,-2.7 -2.7,-2.7 h -8.8 c -1.4,0 -2.7,1.2 -2.7,2.7 v 16.5 c 0,1.4 1.2,2.7 2.7,2.7 h 8.8 c 1.5,0 2.7,-1.2 2.7,-2.7 z"
     id="path9" /><path
     d="m 190.06312,21 v 16.8 c 0,5.3 -4.3,9.6 -9.6,9.6 h -14.8 l 2.1,-7 h 12.5 c 1.5,0 2.7,-1.2 2.7,-2.7 V 33 h -12.6 c -5.3,0 -9.6,-4.3 -9.6,-9.6 v -2.3 c 0,-5.3 4.3,-9.6 9.6,-9.6 h 10.1 c 5.3,-0.1 9.6,4.2 9.6,9.5 z m -7.1,0.2 c 0,-1.5 -1.2,-2.7 -2.7,-2.7 h -9.9 c -1.4,0 -2.7,1.2 -2.7,2.7 v 2 c 0,1.5 1.2,2.7 2.7,2.7 h 9 l 3.5,3.6 v -8.3 z"
     id="path11" /><path
     d="m 219.76312,21 v 16.8 c 0,5.3 -4.3,9.6 -9.6,9.6 h -7.5 c -5.3,0 -9.6,-4.3 -9.6,-9.6 V 21 c 0,-5.3 4.3,-9.6 9.6,-9.6 h 7.5 c 5.3,0 9.6,4.3 9.6,9.6 z m -7.1,0.2 c 0,-1.5 -1.2,-2.7 -2.7,-2.7 h -7.2 c -1.4,0 -2.7,1.2 -2.7,2.7 v 16.5 c 0,1.4 1.2,2.7 2.7,2.7 h 7.2 c 1.5,0 2.7,-1.2 2.7,-2.7 z"
     id="path13" /><path
     id="path17"
     d="m 56.56312,22.8 c -0.5,-0.6 -0.6,-0.6 -1.3,-0.6 -1.1,-3.9 -1.6,-3.9 -2.8,-3.5 -0.4,-0.3 -0.8,-0.5 -1.1,-0.6 -0.1,-0.6 -0.3,-1.2 -0.5,-1.9 -0.8,-2.5 -1.2,-3.2 -1.2,-3.2 0,0 0.9,-0.4 -1.2,-2.8 -3.2,-3.8 -6.5,-6.7 -11.6,-8.2 -0.3,-0.5 -0.8,-1.1 -1.1,-1.2 -0.5,-0.2 -4,-0.8 -7.2,-0.8 -3.2,0 -6.7,0.6 -7.2,0.8 -0.3,0.1 -0.7,0.7 -1.1,1.2 -5.1,1.5 -8.4,4.4 -11.6,8.2 -2,2.4 -1.2,2.8 -1.2,2.8 0,0 -0.3,0.7 -1.1,3.2 -0.2,0.7 -0.4,1.3 -0.5,1.9 -0.3,0.1 -0.7,0.3 -1.1,0.6 -1.2,-0.4 -1.7,-0.4 -2.8,3.5 -0.7,0 -0.8,-0.1 -1.3,0.6 -1,1.4 -0.7,6.3 -0.2,8.3 0.1,0.3 0.2,0.8 0.9,0.9 0.3,0.1 1,0 1,0 0,0 0.9,2.9 1.5,3.3 0.4,0.2 1.1,0.1 1.1,0.1 0,0 0.2,0.8 1.9,0.6 0.6,-0.1 1.1,-0.2 1.4,-0.3 0.3,2.1 0.7,4.6 1.6,7.6 1,4.3 4.8,9.7 9.4,11.7 3.7,1.6 6.2,1.8 9.2,2 3,-0.2 5.5,-0.3 9.2,-2 4.6,-2 8.4,-7.4 9.4,-11.7 1,-3 1.4,-5.4 1.6,-7.6 0.3,0.1 0.7,0.2 1.4,0.3 1.7,0.2 1.9,-0.6 1.9,-0.6 0,0 0.7,0.2 1.1,-0.1 0.6,-0.4 1.5,-3.3 1.5,-3.3 0,0 0.7,0.1 1,0 0.6,-0.1 0.8,-0.6 0.9,-0.9 0.8,-2 1.1,-6.9 0.1,-8.3 z m -40.4,20.1 c -0.8,-0.5 -1.7,-1 -2.1,-1.3 -0.1,-0.1 -0.2,-0.2 -0.2,-0.4 l 0.2,-0.8 3.9,1.8 c 0.1,0.1 0.2,0.2 0.2,0.3 V 44 c 0,0 0,6.6 2.7,8.6 -2.9,-1.3 -4.2,-6.3 -4.7,-9.7 z m 10.4,7.9 c 0,0.2 -0.2,0.4 -0.5,0.4 l -3.6,-0.5 c -0.2,0 -0.3,-0.2 -0.4,-0.3 l -0.1,-0.8 c 0,-0.3 0.2,-0.5 0.5,-0.5 l 3.7,0.6 c 0.2,0 0.3,0.2 0.3,0.4 v 0.7 z m 0,-6.8 -4.1,-0.4 c -0.2,0 -0.3,-0.2 -0.4,-0.3 l -0.1,-1 4.6,0.5 z m 8.5,6.4 c 0,0.2 -0.2,0.3 -0.4,0.3 l -3.5,0.5 c -0.2,0 -0.5,-0.2 -0.5,-0.4 v -0.6 c 0,-0.2 0.1,-0.4 0.3,-0.4 l 3.7,-0.6 c 0.3,0 0.5,0.2 0.5,0.5 z m 0.1,-7.1 c 0,0.2 -0.2,0.3 -0.4,0.3 l -4.1,0.4 v -1.2 l 4.6,-0.5 z m 8,-1.6 c -0.4,0.2 -1.2,0.8 -2.1,1.3 -0.5,3.3 -1.8,8.4 -4.7,9.8 2.6,-2.1 2.7,-8.6 2.7,-8.6 v -1.5 c 0,-0.1 0.1,-0.3 0.2,-0.3 l 3.9,-1.8 0.2,0.8 c 0,0 -0.1,0.2 -0.2,0.3 z m 5.4,-7.5 c -0.1,0.2 -0.2,0.4 -0.3,0.6 -2.7,3.7 -5,5.2 -10.5,6.8 h -0.2 c -0.7,0 -1.1,-0.1 -1.5,-0.3 -0.4,-0.1 -0.7,-0.2 -1.7,-0.1 -1.6,0.1 -4.4,0.3 -5.8,0.4 -1.3,-0.1 -4.2,-0.2 -5.8,-0.4 -1,-0.1 -1.3,0 -1.7,0.1 -0.3,0.1 -0.7,0.3 -1.5,0.3 h -0.2 c -5.5,-1.6 -7.8,-3.1 -10.5,-6.8 -0.1,-0.2 -0.2,-0.4 -0.3,-0.6 -0.5,-4.6 -0.6,-5.8 -0.2,-7.6 0.2,2.7 0.8,5.7 1.9,7.2 2.3,3.2 4.1,4.6 9.5,6.1 0.4,0 0.5,-0.1 0.8,-0.2 0.6,-0.2 1.1,-0.3 2.4,-0.2 1.5,0.1 4.3,0.3 5.6,0.3 1.4,-0.1 4.1,-0.2 5.6,-0.3 1.3,-0.1 1.8,0 2.4,0.2 0.2,0.1 0.4,0.1 0.8,0.2 5.4,-1.6 7.2,-3 9.5,-6.1 1.1,-1.5 1.6,-4.5 1.9,-7.2 0.5,1.7 0.4,3 -0.2,7.6 z m 0.5,-15.1 c -0.3,0.3 -0.7,1.4 -0.8,2.2 -0.4,2.7 -1.4,3.4 -1.6,3.6 l -0.2,0.1 h -0.3 c -0.1,0 -7.1,-1.1 -17.5,-1.1 -10.4,0 -17.4,1.1 -17.5,1.1 h -0.3 l -0.2,-0.1 c -0.3,-0.1 -1.3,-0.8 -1.6,-3.6 -0.1,-0.9 -0.5,-2 -0.8,-2.2 -0.2,-0.2 -0.4,-0.4 -0.6,-0.6 0.4,-2.1 1.4,-5.1 1.4,-5.1 0,0 0.2,0.1 0.5,-0.2 0.9,-1.3 2.2,-3.5 6.2,-5.8 1.5,-0.8 3,-1.5 4.6,-1.9 0.4,0.3 0.8,0.4 1.3,0.3 -4.2,1.6 -9.1,5 -12.5,12 0.5,0.3 1.3,1.2 1.6,3.2 0.2,1.3 0.5,2 0.7,2.2 1.7,-0.2 7.7,-1 17.3,-1.1 9.6,0.1 15.7,0.8 17.3,1.1 0.2,-0.3 0.5,-0.9 0.7,-2.2 0.3,-2 1,-2.8 1.6,-3.2 -3.4,-7 -8.3,-10.4 -12.5,-12 0.5,0.1 0.9,0 1.3,-0.3 1.5,0.4 3.1,1 4.6,1.9 4,2.3 5.3,4.5 6.2,5.8 0.3,0.2 0.5,0.2 0.5,0.2 0,0 1,3 1.4,5.1 -0.4,0.2 -0.6,0.4 -0.8,0.6 z"
     class="st0" /></g>
</svg>